Coordinates
version=1
nRows=38
nColumns=12
inDegrees=yes

Units are S.I. units (second, meters, Newtons, ...)
Angles are in degrees

endheader
time	SC_y	SC_z	SC_x	AC_y	AC_z	AC_x	GH_y	GH_z	GH_yy	EL_x	PS_y
       0.0              -54.91          21.19          50.21          66.96         -17.58           -8.5         -167.1         -14.39         -141.2          116.5          30.79
  0.007866              -54.91          21.19          50.21          66.96         -17.58         -8.502         -167.1         -14.39         -141.1          116.5          30.79
   0.01573              -54.91          21.19          50.21          66.96         -17.58         -8.503         -167.1         -14.38         -141.1          116.5           30.8
    0.0236               -54.9          21.19          50.22          66.96         -17.58         -8.504         -167.1         -14.38         -141.1          116.5          30.81
   0.03146               -54.9          21.19          50.22          66.95         -17.58         -8.506         -167.1         -14.38         -141.0          116.5          30.82
   0.03933               -54.9          21.19          50.22          66.95         -17.58         -8.508         -167.1         -14.37         -141.0          116.5          30.82
    0.0472              -54.89          21.19          50.23          66.95         -17.58         -8.509         -167.1         -14.37         -141.0          116.5          30.83
   0.05506              -54.89          21.19          50.23          66.95         -17.58         -8.511         -167.1         -14.36         -140.9          116.5          30.84
   0.06293              -54.89           21.2          50.24          66.94         -17.58         -8.513         -167.1         -14.36         -140.9          116.5          30.85
   0.07079              -54.88           21.2          50.24          66.94         -17.58         -8.515         -167.1         -14.35         -140.9          116.5          30.87
   0.07866              -54.88           21.2          50.25          66.94         -17.58         -8.517         -167.1         -14.35         -140.8          116.5          30.88
   0.08653              -54.87           21.2          50.25          66.93         -17.58          -8.52         -167.1         -14.34         -140.8          116.5          30.89
   0.09439              -54.87           21.2          50.26          66.93         -17.58         -8.522         -167.1         -14.33         -140.7          116.5           30.9
    0.1023              -54.86           21.2          50.27          66.93         -17.58         -8.525         -167.1         -14.33         -140.7          116.5          30.92
    0.1101              -54.86          21.21          50.27          66.92         -17.58         -8.528         -167.0         -14.32         -140.6          116.5          30.94
     0.118              -54.85          21.21          50.28          66.92         -17.58         -8.532         -167.0         -14.31         -140.5          116.5          30.95
    0.1259              -54.84          21.21          50.29          66.91         -17.58         -8.535         -167.0          -14.3         -140.5          116.5          30.97
    0.1337              -54.84          21.21           50.3          66.91         -17.58         -8.539         -167.0         -14.29         -140.4          116.6           31.0
    0.1416              -54.83          21.21          50.31           66.9         -17.58         -8.543         -167.0         -14.28         -140.3          116.6          31.02
    0.1495              -54.82          21.22          50.32          66.89         -17.57         -8.548         -167.0         -14.27         -140.2          116.6          31.04
    0.1573              -54.81          21.22          50.33          66.88         -17.57         -8.553         -167.0         -14.25         -140.1          116.6          31.07
    0.1652               -54.8          21.22          50.35          66.88         -17.57         -8.559         -167.0         -14.24         -140.0          116.6           31.1
    0.1731              -54.79          21.23          50.36          66.87         -17.57         -8.565         -167.0         -14.22         -139.9          116.6          31.14
    0.1809              -54.77          21.23          50.38          66.86         -17.57         -8.572         -167.0          -14.2         -139.7          116.6          31.17
    0.1888              -54.76          21.24          50.39          66.85         -17.57          -8.58         -167.0         -14.18         -139.6          116.6          31.22
    0.1967              -54.74          21.24          50.42          66.83         -17.57         -8.589         -167.0         -14.16         -139.4          116.6          31.26
    0.2045              -54.72          21.25          50.44          66.82         -17.57         -8.598         -167.0         -14.14         -139.2          116.6          31.31
    0.2124               -54.7          21.25          50.46           66.8         -17.57         -8.609         -167.0         -14.11         -139.0          116.6          31.37
    0.2203              -54.68          21.26          50.49          66.79         -17.57         -8.621         -167.0         -14.08         -138.7          116.6          31.44
    0.2281              -54.65          21.27          50.53          66.77         -17.56         -8.635         -167.0         -14.04         -138.4          116.6          31.52
     0.236              -54.62          21.28          50.56          66.74         -17.56         -8.651         -167.0          -14.0         -138.1          116.6           31.6
    0.2438              -54.59          21.29          50.61          66.72         -17.56         -8.669         -167.0         -13.95         -137.8          116.7           31.7
    0.2517              -54.55           21.3          50.66          66.69         -17.56          -8.69         -167.0          -13.9         -137.3          116.7          31.81
    0.2596               -54.5          21.31          50.71          66.65         -17.55         -8.715         -167.0         -13.83         -136.8          116.7          31.95
    0.2674              -54.44          21.33          50.78          66.61         -17.55         -8.744         -167.0         -13.76         -136.3          116.7           32.1
    0.2753              -54.38          21.35          50.86          66.56         -17.55         -8.777         -167.0         -13.67         -135.6          116.7          32.28
    0.2832               -54.3          21.37          50.96           66.5         -17.54         -8.817         -167.0         -13.57         -134.8          116.8           32.5
     0.291              -54.21           21.4          51.07          66.43         -17.54         -8.866         -166.9         -13.44         -133.8          116.8          32.76
